<svg viewBox="0 0 120 120" fill="none" xmlns="http://www.w3.org/2000/svg">
  <line x1="60" y1="18" x2="60" y2="102" stroke="currentColor" stroke-width="2"/>
  <path d="M60 18 L47 6 L53 20 M60 18 L73 6 L67 20" stroke="currentColor" stroke-width="1.3"/>
  <path d="M60 102 L47 114 L53 100 M60 102 L73 114 L67 100" stroke="currentColor" stroke-width="1.3"/>
  <circle cx="60" cy="60" r="8" stroke="currentColor" stroke-width="1.4"/>
  <line x1="60" y1="40" x2="60" y2="30" stroke="currentColor" stroke-width="1"/>
  <line x1="60" y1="80" x2="60" y2="90" stroke="currentColor" stroke-width="1"/>
  <line x1="40" y1="60" x2="30" y2="60" stroke="currentColor" stroke-width="1"/>
  <line x1="80" y1="60" x2="90" y2="60" stroke="currentColor" stroke-width="1"/>
  <line x1="45.8" y1="45.8" x2="38.8" y2="38.8" stroke="currentColor" stroke-width="1"/>
  <line x1="74.2" y1="45.8" x2="81.2" y2="38.8" stroke="currentColor" stroke-width="1"/>
  <line x1="45.8" y1="74.2" x2="38.8" y2="81.2" stroke="currentColor" stroke-width="1"/>
  <line x1="74.2" y1="74.2" x2="81.2" y2="81.2" stroke="currentColor" stroke-width="1"/>
</svg>